<svg width="28" height="28" viewBox="0 0 28 28" fill="none" xmlns="http://www.w3.org/2000/svg">
<g clip-path="url(#clip0_165_880)">
<path d="M6.87499 0C6.33254 0 5.89282 0.43972 5.89282 0.982161V2.94643H7.85709V0.982161C7.85709 0.43972 7.41737 0 6.87499 0Z" fill="white"/>
<path d="M20.625 0C20.0825 0 19.6428 0.43972 19.6428 0.982161V2.94643H21.6071V0.982161C21.6071 0.43972 21.1674 0 20.625 0Z" fill="white"/>
<path d="M24.5536 2.94644H21.6071V6.87503C21.6071 7.41747 21.1674 7.85719 20.625 7.85719C20.0825 7.85719 19.6428 7.41747 19.6428 6.87503V2.94644H7.85712V6.87503C7.85712 7.41747 7.4174 7.85719 6.87496 7.85719C6.33252 7.85719 5.8928 7.41747 5.8928 6.87503V2.94644H2.94643C1.31916 2.94644 0 4.2656 0 5.89287V24.5536C0 26.1809 1.31916 27.5 2.94643 27.5H24.5536C26.1808 27.5 27.5 26.1809 27.5 24.5536V5.89287C27.5 4.2656 26.1808 2.94644 24.5536 2.94644ZM25.5357 24.5536C25.5357 25.096 25.096 25.5358 24.5535 25.5358H2.94643C2.40399 25.5358 1.96427 25.096 1.96427 24.5536V11.7857H25.5357V24.5536Z" fill="white"/>
<path d="M7.85708 13.75H5.89281C5.35036 13.75 4.91064 14.1897 4.91064 14.7321C4.91064 15.2746 5.35036 15.7143 5.89281 15.7143H7.85708C8.39952 15.7143 8.83924 15.2746 8.83924 14.7321C8.83924 14.1897 8.39952 13.75 7.85708 13.75Z" fill="white"/>
<path d="M14.7321 13.75H12.7678C12.2254 13.75 11.7856 14.1897 11.7856 14.7321C11.7856 15.2746 12.2254 15.7143 12.7678 15.7143H14.7321C15.2745 15.7143 15.7142 15.2746 15.7142 14.7321C15.7142 14.1897 15.2745 13.75 14.7321 13.75Z" fill="white"/>
<path d="M21.6071 13.75H19.6428C19.1004 13.75 18.6606 14.1897 18.6606 14.7321C18.6606 15.2746 19.1004 15.7143 19.6428 15.7143H21.6071C22.1495 15.7143 22.5892 15.2746 22.5892 14.7321C22.5892 14.1897 22.1495 13.75 21.6071 13.75Z" fill="white"/>
<path d="M7.85708 17.6786H5.89281C5.35036 17.6786 4.91064 18.1183 4.91064 18.6607C4.91064 19.2032 5.35036 19.6429 5.89281 19.6429H7.85708C8.39952 19.6429 8.83924 19.2032 8.83924 18.6607C8.83924 18.1183 8.39952 17.6786 7.85708 17.6786Z" fill="white"/>
<path d="M14.7321 17.6786H12.7678C12.2254 17.6786 11.7856 18.1183 11.7856 18.6607C11.7856 19.2032 12.2254 19.6429 12.7678 19.6429H14.7321C15.2745 19.6429 15.7142 19.2032 15.7142 18.6607C15.7142 18.1183 15.2745 17.6786 14.7321 17.6786Z" fill="white"/>
<path d="M21.6071 17.6786H19.6428C19.1004 17.6786 18.6606 18.1183 18.6606 18.6607C18.6606 19.2032 19.1004 19.6429 19.6428 19.6429H21.6071C22.1495 19.6429 22.5892 19.2032 22.5892 18.6607C22.5892 18.1183 22.1495 17.6786 21.6071 17.6786Z" fill="white"/>
<path d="M7.85708 21.6071H5.89281C5.35036 21.6071 4.91064 22.0468 4.91064 22.5893C4.91064 23.1317 5.35036 23.5714 5.89281 23.5714H7.85708C8.39952 23.5714 8.83924 23.1317 8.83924 22.5892C8.83924 22.0468 8.39952 21.6071 7.85708 21.6071Z" fill="white"/>
<path d="M14.7321 21.6071H12.7678C12.2254 21.6071 11.7856 22.0468 11.7856 22.5893C11.7856 23.1317 12.2254 23.5714 12.7678 23.5714H14.7321C15.2745 23.5714 15.7142 23.1317 15.7142 22.5893C15.7142 22.0468 15.2745 21.6071 14.7321 21.6071Z" fill="white"/>
<path d="M21.6071 21.6071H19.6428C19.1004 21.6071 18.6606 22.0468 18.6606 22.5893C18.6606 23.1317 19.1004 23.5714 19.6428 23.5714H21.6071C22.1495 23.5714 22.5892 23.1317 22.5892 22.5893C22.5892 22.0468 22.1495 21.6071 21.6071 21.6071Z" fill="white"/>
</g>
<defs>
<clipPath id="clip0_165_880">
<rect width="27.5" height="27.5" fill="white"/>
</clipPath>
</defs>
</svg>
